# 3ds Max Wavefront OBJ Exporter v0.97b - (c)2007 guruware
# File Created: 29.01.2019 14:04:28

mtllib ./111.mtl

#
# object default
#

v  3.2524 23.0803 -2.0015
v  3.2524 23.0803 2.0015
v  3.4692 22.7559 2.0015
v  3.4692 22.7559 -2.0015
v  2.9280 23.2971 -2.0015
v  2.9280 23.2971 2.0015
v  2.5453 23.3732 -2.0015
v  2.5453 23.3732 2.0015
v  2.1626 23.2971 -2.0015
v  2.1626 23.2971 2.0015
v  1.8382 23.0803 -2.0015
v  1.8382 23.0803 2.0015
v  1.6214 22.7559 -2.0015
v  1.6214 22.7559 2.0015
v  1.5453 22.3732 -2.0015
v  1.5453 22.3732 2.0015
v  1.6214 21.9905 -2.0015
v  1.6214 21.9905 2.0015
v  1.8382 21.6661 -2.0015
v  1.8382 21.6661 2.0015
v  2.1626 21.4493 -2.0015
v  2.1626 21.4493 2.0015
v  2.5453 21.3732 -2.0015
v  2.5453 21.3732 2.0015
v  2.9280 21.4493 -2.0015
v  2.9280 21.4493 2.0015
v  3.2524 21.6661 -2.0015
v  3.2524 21.6661 2.0015
v  3.4692 21.9905 -2.0015
v  3.4692 21.9905 2.0015
v  3.5453 22.3732 -2.0015
v  3.5453 22.3732 2.0015
v  1.8500 22.0890 1.0161
v  2.1066 22.0890 0.9098
v  2.1066 21.3241 0.9098
v  1.8500 21.3241 1.0161
v  2.1066 22.0890 1.6358
v  1.8500 22.0890 1.5295
v  1.8500 21.3241 1.5295
v  2.1066 21.3241 1.6358
v  1.7436 22.0890 1.2728
v  1.7436 21.3241 1.2728
v  2.9840 21.3241 0.9098
v  2.9840 22.0890 0.9098
v  3.2406 22.0890 1.0161
v  3.2406 21.3241 1.0161
v  3.2406 21.3241 1.5295
v  3.2406 22.0890 1.5295
v  2.9840 22.0890 1.6358
v  2.9840 21.3241 1.6358
v  3.3470 21.3241 1.2728
v  3.3470 22.0890 1.2728
v  2.9840 21.2878 0.8493
v  2.9840 21.3688 0.8493
v  3.2834 21.3688 0.9733
v  3.2834 21.2878 0.9733
v  3.2834 21.2878 1.5722
v  3.2834 21.3688 1.5722
v  2.9840 21.3688 1.6963
v  2.9840 21.2878 1.6963
v  3.4075 21.2878 1.2728
v  3.4075 21.3688 1.2728
v  1.8072 21.3688 0.9733
v  2.1066 21.3688 0.8493
v  2.1066 21.2878 0.8493
v  1.8072 21.2878 0.9733
v  2.1066 21.3688 1.6963
v  1.8072 21.3688 1.5722
v  1.8072 21.2878 1.5722
v  2.1066 21.2878 1.6963
v  1.6831 21.3688 1.2728
v  1.6831 21.2878 1.2728
v  1.8500 22.0890 -1.5358
v  2.1066 22.0890 -1.6421
v  2.1066 21.3241 -1.6421
v  1.8500 21.3241 -1.5358
v  2.1066 22.0890 -0.9161
v  1.8500 22.0890 -1.0224
v  1.8500 21.3241 -1.0224
v  2.1066 21.3241 -0.9161
v  1.7436 22.0890 -1.2791
v  1.7436 21.3241 -1.2791
v  2.9840 21.3241 -1.6421
v  2.9840 22.0890 -1.6421
v  3.2406 22.0890 -1.5358
v  3.2406 21.3241 -1.5358
v  3.2406 21.3241 -1.0224
v  3.2406 22.0890 -1.0224
v  2.9840 22.0890 -0.9161
v  2.9840 21.3241 -0.9161
v  3.3470 21.3241 -1.2791
v  3.3470 22.0890 -1.2791
v  2.9840 21.2878 -1.7026
v  2.9840 21.3688 -1.7026
v  3.2834 21.3688 -1.5786
v  3.2834 21.2878 -1.5786
v  3.2834 21.2878 -0.9796
v  3.2834 21.3688 -0.9796
v  2.9840 21.3688 -0.8556
v  2.9840 21.2878 -0.8556
v  3.4075 21.2878 -1.2791
v  3.4075 21.3688 -1.2791
v  1.8072 21.3688 -1.5786
v  2.1066 21.3688 -1.7026
v  2.1066 21.2878 -1.7026
v  1.8072 21.2878 -1.5786
v  2.1066 21.3688 -0.8556
v  1.8072 21.3688 -0.9796
v  1.8072 21.2878 -0.9796
v  2.1066 21.2878 -0.8556
v  1.6831 21.3688 -1.2791
v  1.6831 21.2878 -1.2791
# 112 vertices

vn 0.7071 0.7071 -0.0000
vn 0.9239 0.3827 -0.0000
vn 0.3827 0.9239 -0.0000
vn 0.0000 1.0000 -0.0000
vn -0.3827 0.9239 -0.0000
vn -0.7071 0.7071 -0.0000
vn -0.9239 0.3827 -0.0000
vn -1.0000 0.0000 -0.0000
vn -0.9239 -0.3827 -0.0000
vn -0.7071 -0.7071 -0.0000
vn -0.3827 -0.9239 -0.0000
vn -0.0000 -1.0000 -0.0000
vn 0.3827 -0.9239 -0.0000
vn 0.7071 -0.7071 -0.0000
vn 0.9239 -0.3827 -0.0000
vn 1.0000 0.0000 -0.0000
vn 0.0000 0.0000 -1.0000
vn 0.0000 -0.0000 -1.0000
vn -0.0000 0.0000 -1.0000
vn -0.0000 0.0000 1.0000
vn 0.0000 0.0000 1.0000
vn 0.0000 -0.0000 1.0000
vn -0.0000 -0.0000 1.0000
vn -0.7071 0.0000 -0.7071
vn -0.0933 0.0000 -0.9956
vn -0.0933 0.0000 0.9956
vn -0.7071 0.0000 0.7071
vn 0.0933 0.0000 -0.9956
vn 0.7071 0.0000 -0.7071
vn 0.7071 0.0000 0.7071
vn 0.0933 0.0000 0.9956
vn 0.1048 0.0000 -0.9945
vn 0.1048 0.0000 0.9945
vn -0.1048 0.0000 -0.9945
vn -0.1048 0.0000 0.9945
# 35 vertex normals

vt 0.9936 0.9313 0.0000
vt 0.6880 0.9313 0.0000
vt 0.6880 0.9015 0.0000
vt 0.9936 0.9015 0.0000
vt 0.9936 0.9611 0.0000
vt 0.6880 0.9611 0.0000
vt 0.9936 0.9909 0.0000
vt 0.6880 0.9909 0.0000
vt -0.0064 0.9611 0.0000
vt -0.3120 0.9611 0.0000
vt -0.3120 0.9909 0.0000
vt -0.0064 0.9909 0.0000
vt -0.0064 0.9313 0.0000
vt -0.3120 0.9313 0.0000
vt -0.0064 0.9015 0.0000
vt -0.3120 0.9015 0.0000
vt -0.0064 0.8718 0.0000
vt -0.3120 0.8718 0.0000
vt -0.0064 0.8420 0.0000
vt -0.3120 0.8420 0.0000
vt -0.0064 0.8122 0.0000
vt -0.3120 0.8122 0.0000
vt -0.0064 0.7824 0.0000
vt -0.3120 0.7824 0.0000
vt -0.0064 0.7526 0.0000
vt -0.3120 0.7526 0.0000
vt 0.9936 0.7824 0.0000
vt 0.6880 0.7824 0.0000
vt 0.6880 0.7526 0.0000
vt 0.9936 0.7526 0.0000
vt 0.9936 0.8122 0.0000
vt 0.6880 0.8122 0.0000
vt 0.9936 0.8420 0.0000
vt 0.6880 0.8420 0.0000
vt 0.9936 0.8718 0.0000
vt 0.6880 0.8718 0.0000
vt -0.4533 0.8622 0.0000
vt -0.4278 0.8452 0.0000
vt -0.3191 0.9178 0.0000
vt -0.4704 0.8877 0.0000
vt -0.4764 0.9178 0.0000
vt -0.4704 0.9479 0.0000
vt -0.4533 0.9734 0.0000
vt -0.4278 0.9905 0.0000
vt -0.3977 0.9964 0.0000
vt -0.3676 0.9905 0.0000
vt -0.3421 0.9734 0.0000
vt -0.3251 0.9479 0.0000
vt -0.3421 0.8622 0.0000
vt -0.3251 0.8877 0.0000
vt -0.3676 0.8452 0.0000
vt -0.3977 0.8392 0.0000
vt 0.6749 0.9479 0.0000
vt 0.6579 0.9734 0.0000
vt 0.6023 0.8392 0.0000
vt 0.6324 0.9905 0.0000
vt 0.6023 0.9964 0.0000
vt 0.5722 0.9905 0.0000
vt 0.5467 0.9734 0.0000
vt 0.5296 0.9479 0.0000
vt 0.5236 0.9178 0.0000
vt 0.5296 0.8877 0.0000
vt 0.5467 0.8622 0.0000
vt 0.5722 0.8452 0.0000
vt 0.6324 0.8452 0.0000
vt 0.6579 0.8622 0.0000
vt 0.6749 0.8877 0.0000
vt 0.6809 0.9178 0.0000
vt -0.7859 0.6630 0.0000
vt -0.7689 0.6630 0.0000
vt -0.7689 0.6005 0.0000
vt -0.7859 0.6005 0.0000
vt -0.8369 0.6630 0.0000
vt -0.8199 0.6630 0.0000
vt -0.8199 0.6005 0.0000
vt -0.8369 0.6005 0.0000
vt -0.8029 0.6630 0.0000
vt -0.8029 0.6005 0.0000
vt 0.2311 0.6005 0.0000
vt 0.2311 0.6630 0.0000
vt 0.2141 0.6630 0.0000
vt 0.2141 0.6005 0.0000
vt 0.1801 0.6005 0.0000
vt 0.1801 0.6630 0.0000
vt 0.1631 0.6630 0.0000
vt 0.1631 0.6005 0.0000
vt 0.1971 0.6005 0.0000
vt 0.1971 0.6630 0.0000
vt 0.1093 0.6005 0.0000
vt 0.1094 0.6630 0.0000
vt 0.2850 0.6630 0.0000
vt 0.2849 0.6005 0.0000
vt 0.2348 0.5859 0.0000
vt 0.2347 0.5912 0.0000
vt 0.2162 0.5912 0.0000
vt 0.2162 0.5859 0.0000
vt 0.1791 0.5859 0.0000
vt 0.1791 0.5912 0.0000
vt 0.1606 0.5912 0.0000
vt 0.1606 0.5859 0.0000
vt 0.1977 0.5859 0.0000
vt 0.1977 0.5912 0.0000
vt -0.8023 0.5912 0.0000
vt -0.7837 0.5912 0.0000
vt -0.7838 0.5859 0.0000
vt -0.8023 0.5859 0.0000
vt -0.8579 0.5912 0.0000
vt -0.8394 0.5912 0.0000
vt -0.8394 0.5859 0.0000
vt -0.8579 0.5859 0.0000
vt -0.8208 0.5912 0.0000
vt -0.8208 0.5859 0.0000
vt 0.1104 0.5912 0.0000
vt 0.1104 0.5859 0.0000
vt 0.2849 0.5859 0.0000
vt 0.2849 0.5912 0.0000
vt 0.0562 0.4512 0.0000
vt 0.0644 0.4711 0.0000
vt 0.0082 0.5293 0.0000
vt 0.0082 0.4711 0.0000
vt 0.0165 0.4512 0.0000
vt 0.0363 0.4430 0.0000
vt 0.0644 0.5293 0.0000
vt 0.0562 0.5491 0.0000
vt 0.0363 0.5574 0.0000
vt 0.0165 0.5491 0.0000
vt -0.8907 0.6005 0.0000
vt -0.8906 0.6630 0.0000
vt -0.7150 0.6630 0.0000
vt -0.7151 0.6005 0.0000
vt -0.7652 0.5859 0.0000
vt -0.7653 0.5912 0.0000
vt -0.7838 0.5912 0.0000
vt -0.8209 0.5859 0.0000
vt -0.8209 0.5912 0.0000
vt -0.8896 0.5912 0.0000
vt -0.8896 0.5859 0.0000
vt -0.7151 0.5859 0.0000
vt -0.7151 0.5912 0.0000
vt -0.9438 0.4512 0.0000
vt -0.9356 0.4711 0.0000
vt -0.9918 0.5293 0.0000
vt -0.9918 0.4711 0.0000
vt -0.9835 0.4512 0.0000
vt -0.9637 0.4430 0.0000
vt -0.9356 0.5293 0.0000
vt -0.9438 0.5491 0.0000
vt -0.9637 0.5574 0.0000
vt -0.9835 0.5491 0.0000
# 149 texture coords

g 采暖炉
usemtl lambert5SG
s 1
f 1/1/1 2/2/1 3/3/2 4/4/2 
f 5/5/3 6/6/3 2/2/1 1/1/1 
f 7/7/4 8/8/4 6/6/3 5/5/3 
f 9/9/5 10/10/5 8/11/4 7/12/4 
f 11/13/6 12/14/6 10/10/5 9/9/5 
f 13/15/7 14/16/7 12/14/6 11/13/6 
f 15/17/8 16/18/8 14/16/7 13/15/7 
f 17/19/9 18/20/9 16/18/8 15/17/8 
f 19/21/10 20/22/10 18/20/9 17/19/9 
f 21/23/11 22/24/11 20/22/10 19/21/10 
f 23/25/12 24/26/12 22/24/11 21/23/11 
f 25/27/13 26/28/13 24/29/12 23/30/12 
f 27/31/14 28/32/14 26/28/13 25/27/13 
f 29/33/15 30/34/15 28/32/14 27/31/14 
f 31/35/16 32/36/16 30/34/15 29/33/15 
f 4/4/2 3/3/2 32/36/16 31/35/16 
s 2
f 1/37/17 4/38/17 23/39/17 
f 5/40/17 1/37/17 23/39/17 
f 7/41/17 5/40/17 23/39/17 
f 9/42/17 7/41/17 23/39/17 
f 11/43/17 9/42/17 23/39/17 
f 13/44/17 11/43/17 23/39/17 
f 15/45/17 13/44/17 23/39/17 
f 17/46/17 15/45/17 23/39/17 
f 19/47/18 17/46/17 23/39/17 
f 21/48/17 19/47/18 23/39/17 
f 27/49/17 25/50/17 23/39/17 
f 29/51/17 27/49/17 23/39/17 
f 31/52/19 29/51/17 23/39/17 
f 4/38/17 31/52/19 23/39/17 
s 4
f 3/53/20 2/54/21 24/55/21 
f 2/54/21 6/56/21 24/55/21 
f 6/56/21 8/57/21 24/55/21 
f 8/57/21 10/58/21 24/55/21 
f 10/58/21 12/59/20 24/55/21 
f 12/59/20 14/60/21 24/55/21 
f 14/60/21 16/61/21 24/55/21 
f 16/61/21 18/62/21 24/55/21 
f 18/62/21 20/63/21 24/55/21 
f 20/63/21 22/64/22 24/55/21 
f 26/65/23 28/66/21 24/55/21 
f 28/66/21 30/67/21 24/55/21 
f 30/67/21 32/68/21 24/55/21 
f 32/68/21 3/53/20 24/55/21 
s 6
f 33/69/24 34/70/25 35/71/25 36/72/24 
f 37/73/26 38/74/27 39/75/27 40/76/26 
f 38/74/27 41/77/8 42/78/8 39/75/27 
f 41/77/8 33/69/24 36/72/24 42/78/8 
f 43/79/28 44/80/28 45/81/29 46/82/29 
f 47/83/30 48/84/30 49/85/31 50/86/31 
f 51/87/16 52/88/16 48/84/30 47/83/30 
f 46/82/29 45/81/29 52/88/16 51/87/16 
f 40/89/26 50/86/31 49/85/31 37/90/26 
f 34/91/25 44/80/28 43/79/28 35/92/25 
s 9
f 53/93/32 54/94/32 55/95/29 56/96/29 
f 57/97/30 58/98/30 59/99/33 60/100/33 
f 61/101/16 62/102/16 58/98/30 57/97/30 
f 56/96/29 55/95/29 62/102/16 61/101/16 
f 63/103/24 64/104/34 65/105/34 66/106/24 
f 67/107/35 68/108/27 69/109/27 70/110/35 
f 68/108/27 71/111/8 72/112/8 69/109/27 
f 71/111/8 63/103/24 66/106/24 72/112/8 
f 59/99/33 67/113/35 70/114/35 60/100/33 
f 53/93/32 65/115/34 64/116/34 54/94/32 
s off
f 55/117/4 54/118/4 67/119/4 
f 59/120/4 58/121/4 67/119/4 
f 58/121/4 62/122/4 67/119/4 
f 62/122/4 55/117/4 67/119/4 
f 64/123/4 63/124/4 67/119/4 
f 71/125/4 68/126/4 67/119/4 
f 63/124/4 71/125/4 67/119/4 
f 54/118/4 64/123/4 67/119/4 
s 12
f 73/69/24 74/70/25 75/71/25 76/72/24 
f 77/73/26 78/74/27 79/75/27 80/76/26 
f 78/74/27 81/77/8 82/78/8 79/75/27 
f 81/77/8 73/69/24 76/72/24 82/78/8 
f 83/71/28 84/70/28 85/69/29 86/72/29 
f 87/75/30 88/74/30 89/73/31 90/76/31 
f 91/78/16 92/77/16 88/74/30 87/75/30 
f 86/72/29 85/69/29 92/77/16 91/78/16 
f 80/127/26 90/76/31 89/73/31 77/128/26 
f 74/129/25 84/70/28 83/71/28 75/130/25 
s 15
f 93/131/32 94/132/32 95/133/29 96/105/29 
f 97/134/30 98/135/30 99/108/33 100/109/33 
f 101/106/16 102/103/16 98/135/30 97/134/30 
f 96/105/29 95/133/29 102/103/16 101/106/16 
f 103/103/24 104/104/34 105/105/34 106/106/24 
f 107/107/35 108/108/27 109/109/27 110/110/35 
f 108/108/27 111/111/8 112/112/8 109/109/27 
f 111/111/8 103/103/24 106/106/24 112/112/8 
f 99/108/33 107/136/35 110/137/35 100/109/33 
f 93/131/32 105/138/34 104/139/34 94/132/32 
s off
f 95/140/4 94/141/4 107/142/4 
f 99/143/4 98/144/4 107/142/4 
f 98/144/4 102/145/4 107/142/4 
f 102/145/4 95/140/4 107/142/4 
f 104/146/4 103/147/4 107/142/4 
f 111/148/4 108/149/4 107/142/4 
f 103/147/4 111/148/4 107/142/4 
f 94/141/4 104/146/4 107/142/4 
# 56 polygons - 44 triangles

